# xmcd CD database file
#
# Track frame offsets:
#	150
#	24602
#	36227
#	49810
#	63380
#	76465
#	89295
#	101685
#	114455
#	126032
#	138152
#	151755
#
# Disc length: 2270 seconds
#
# Revision: 0
# Processed by: cddbd v1.5.2PL0 Copyright (c) Steve Scherf et al.
# Submitted via: CDex 1.50
#
DISCID=9608dc0c
DTITLE=Various Artist - Blues Classics
DYEAR=2003
DGENRE=Blues
TTITLE0=B.B King-The Thrill Is Gone
TTITLE1=Etta James-I'd Rather Go Blind
TTITLE2=Koko Taylor-Wang Dang Doodle
TTITLE3=John Lee Hooker-One Bourbon, One Scotch, One Beer
TTITLE4=Howlin' Wolf-I Ain't Superstitious
TTITLE5=Muddy Waters-Got My Mojo Working
TTITLE6=Little Walter-Juke
TTITLE7=Big Mama Thorton-Hound Dog
TTITLE8=Sonny Boy Williamson-Don't Start Me To Talkin'
TTITLE9=Bobby Blue Bland-I Pity The Fool
TTITLE10=Buddy Guy-My Time After Awhile
TTITLE11=The Robert Cray Band-Smoking Gun
EXTD=YEAR: 2003
EXTT0=
EXTT1=
EXTT2=
EXTT3=
EXTT4=
EXTT5=
EXTT6=
EXTT7=
EXTT8=
EXTT9=
EXTT10=
EXTT11=
PLAYORDER=
